<svg width="295" height="56" viewBox="0 0 295 56" fill="none" xmlns="http://www.w3.org/2000/svg">
<path d="M17.8412 9.4873H11.101C10.6818 9.4873 10.3388 9.61931 10.072 9.88333C9.80526 10.1473 9.67188 10.4868 9.67188 10.9017V45.1017C9.67188 45.4789 9.80526 45.808 10.072 46.0909C10.3388 46.3738 10.68 46.5143 11.101 46.5143H17.8412C18.2604 46.5143 18.6034 46.3738 18.8702 46.0909C19.1352 45.808 19.2703 45.4789 19.2703 45.1017V10.8999C19.2703 10.4851 19.1369 10.1473 18.8702 9.88161C18.6017 9.61931 18.2587 9.4873 17.8412 9.4873Z" fill="#FF004F"/>
<path d="M41.8079 45.1002C41.8079 45.4774 41.9412 45.8066 42.208 46.0894C42.4748 46.3723 42.816 46.5129 43.237 46.5129H49.8629C50.2821 46.5129 50.6251 46.3723 50.8918 46.0894C51.1569 45.8066 51.292 45.4774 51.292 45.1002V27.9154C51.292 26.2576 51.0356 24.7403 50.5211 23.3637C50.0066 21.9888 49.1977 20.7921 48.0942 19.7738C46.989 18.7555 45.5617 17.9651 43.8104 17.3994C42.059 16.8337 39.963 16.5508 37.5275 16.5508C35.1283 16.5508 33.0911 16.8337 31.416 17.3994C29.7392 17.9651 28.369 18.6817 27.3037 19.5475C26.2366 20.415 25.4467 21.291 24.9339 22.1756C24.4195 23.062 24.1631 23.8437 24.1631 24.5209C24.125 24.8603 24.2203 25.1518 24.4489 25.3969C24.6776 25.6421 24.9998 25.7638 25.4207 25.7638H31.8179C32.426 25.7638 32.9041 25.5187 33.2453 25.0284C33.6247 24.3135 34.1496 23.7477 34.8165 23.3328C35.4817 22.918 36.3495 22.7105 37.4149 22.7105C38.9375 22.7105 39.9855 23.0688 40.5572 23.7854C41.1288 24.502 41.4146 25.5375 41.4146 26.8936V27.6856L34.2743 28.7588C30.6192 29.3246 27.6865 30.3892 25.4779 31.9527C23.2692 33.5162 22.1641 35.6369 22.1641 38.313C22.1641 39.9725 22.6404 41.4606 23.5914 42.779C24.5425 44.099 25.8278 45.1448 27.4474 45.9163C29.0654 46.6877 30.9033 47.0752 32.9595 47.0752C34.444 47.0752 35.7484 46.8952 36.8727 46.5386C37.9952 46.1803 38.9756 45.7003 39.814 45.0968C40.6507 44.4951 41.3176 43.835 41.8131 43.1184L41.8079 45.1002ZM41.522 33.9637C41.522 35.4723 41.2657 36.7255 40.7512 37.7233C40.2367 38.7228 39.5317 39.4565 38.6378 39.928C37.7423 40.3994 36.7427 40.6343 35.6393 40.6343C34.9152 40.6343 34.2396 40.5126 33.6108 40.2674C32.982 40.0223 32.4779 39.6742 32.0968 39.2216C31.7157 38.7691 31.5252 38.2239 31.5252 37.5827C31.5252 36.7547 31.934 36.0278 32.7534 35.4072C33.571 34.7849 34.8754 34.3237 36.6665 34.022L41.522 33.1733V33.9637Z" fill="#FF004F"/>
<path d="M119.211 18.5311C117.021 17.2128 114.249 16.5527 110.899 16.5527C107.967 16.5527 105.406 17.1099 103.217 18.2208C101.027 19.3334 99.3122 20.9535 98.0754 23.0828C96.8368 25.212 96.1612 27.7664 96.0469 30.7426C96.0469 30.9689 96.0469 31.2895 96.0469 31.7044C96.0469 32.1192 96.0469 32.4587 96.0469 32.7227C96.1612 37.4715 97.5505 41.0528 100.216 43.4633C102.881 45.8754 106.461 47.0806 110.955 47.0806C113.278 47.0806 115.315 46.7977 117.066 46.232C118.817 45.6662 120.274 44.941 121.437 44.0547C122.597 43.1701 123.482 42.2735 124.092 41.37C124.7 40.4648 125.024 39.6933 125.064 39.0522C125.102 38.675 124.996 38.3733 124.75 38.147C124.503 37.9207 124.187 37.8075 123.808 37.8075H116.725C116.268 37.8075 115.935 37.8555 115.725 37.9481C115.516 38.0424 115.24 38.2978 114.897 38.711C114.707 38.9373 114.44 39.2116 114.097 39.5305C113.754 39.8511 113.326 40.1339 112.812 40.3774C112.297 40.6225 111.66 40.7443 110.898 40.7443C109.869 40.7443 109.002 40.4802 108.299 39.9522C107.594 39.4242 107.061 38.7093 106.7 37.8041C106.338 36.8989 106.137 35.9011 106.101 34.8074C106.101 34.7319 106.101 34.6565 106.101 34.5811C106.101 34.5057 106.101 34.4491 106.101 34.4114H124.38C124.799 34.4114 125.14 34.2794 125.409 34.0153C125.674 33.753 125.809 33.4136 125.809 32.997V31.6409C125.809 28.7385 125.256 26.1567 124.153 23.8954C123.048 21.6393 121.4 19.8495 119.211 18.5311ZM115.755 28.8191H106.101V28.7059C106.101 27.463 106.291 26.3984 106.673 25.512C107.052 24.6274 107.605 23.9383 108.329 23.4479C109.051 22.9593 109.908 22.7125 110.899 22.7125C111.928 22.7125 112.813 22.9576 113.555 23.4479C114.298 23.9383 114.849 24.6257 115.211 25.512C115.573 26.3984 115.753 27.463 115.753 28.7059V28.8191H115.755Z" fill="#FF004F"/>
<path d="M128.922 45.1005C128.922 45.4776 129.055 45.8068 129.322 46.0897C129.589 46.3725 129.93 46.5131 130.351 46.5131H137.491C137.911 46.5131 138.254 46.3725 138.52 46.0897C138.785 45.8068 138.92 45.4776 138.92 45.1005V29.6677C138.92 27.8967 139.386 26.5304 140.32 25.5686C141.252 24.6069 142.499 24.1268 144.062 24.1268C145.737 24.1268 147.003 24.6069 147.861 25.5686C148.718 26.5287 149.146 27.895 149.146 29.6677V45.1005C149.146 45.4776 149.279 45.8068 149.546 46.0897C149.813 46.3725 150.154 46.5131 150.575 46.5131H157.773C158.192 46.5131 158.535 46.3725 158.802 46.0897C159.067 45.8068 159.202 45.4776 159.202 45.1005V29.3282C159.202 26.5407 158.717 24.204 157.745 22.3182C156.773 20.4341 155.441 19.0026 153.747 18.022C152.053 17.043 150.1 16.5527 147.892 16.5527C145.721 16.5527 143.837 16.9488 142.238 17.7391C140.639 18.5311 139.362 19.5117 138.411 20.6792V18.5311C138.411 18.154 138.278 17.8248 138.011 17.5419C137.744 17.2591 137.403 17.1185 136.982 17.1185H130.356C129.937 17.1185 129.594 17.2591 129.327 17.5419C129.062 17.8248 128.927 18.154 128.927 18.5311V45.1005H128.922Z" fill="#FF004F"/>
<path d="M175.954 17.1165H183.094C183.513 17.1165 183.865 17.2485 184.151 17.5125C184.436 17.7765 184.578 18.116 184.578 18.5309V23.11C184.578 23.5248 184.436 23.8643 184.151 24.1283C183.865 24.3923 183.513 24.5243 183.094 24.5243H175.954V34.586C175.954 35.8683 176.201 36.8849 176.697 37.6393C177.19 38.3936 178.029 38.7708 179.21 38.7708H183.608C184.028 38.7708 184.369 38.9028 184.637 39.1668C184.904 39.4308 185.037 39.7702 185.037 40.1851V45.1036C185.037 45.4808 184.904 45.81 184.637 46.0928C184.371 46.3757 184.028 46.5163 183.608 46.5163H178.296C175.858 46.5163 173.755 46.1306 171.983 45.3574C170.213 44.5859 168.851 43.379 167.899 41.74C166.946 40.1011 166.471 37.9804 166.471 35.3797V24.526H162.016C161.597 24.526 161.245 24.394 160.959 24.13C160.673 23.866 160.531 23.5283 160.531 23.1117V18.5326C160.531 18.1177 160.673 17.7783 160.959 17.5142C161.245 17.2502 161.597 17.1182 162.016 17.1182H166.471V10.9019C166.471 10.5247 166.605 10.1956 166.871 9.91271C167.138 9.62984 167.481 9.48926 167.9 9.48926H174.526C174.945 9.48926 175.288 9.62984 175.555 9.91271C175.822 10.1956 175.955 10.5247 175.955 10.9019L175.954 17.1165Z" fill="#FF004F"/>
<path d="M188.484 45.1002C188.484 45.4773 188.618 45.8065 188.885 46.0894C189.151 46.3722 189.493 46.5128 189.913 46.5128H197.054C197.473 46.5128 197.816 46.3722 198.083 46.0894C198.348 45.8065 198.483 45.4773 198.483 45.1002V30.6291C198.483 29.0845 198.911 27.8879 199.768 27.0392C200.626 26.1906 201.833 25.7672 203.396 25.7672H208.937C209.356 25.7672 209.698 25.6266 209.966 25.3437C210.233 25.0609 210.366 24.7317 210.366 24.3545V18.5325C210.366 18.1176 210.233 17.7782 209.966 17.5142C209.699 17.2502 209.356 17.1182 208.937 17.1182H206.424C204.632 17.1182 203.025 17.4388 201.598 18.0782C200.17 18.7194 198.959 19.6246 197.97 20.7921V18.5308C197.97 18.1536 197.837 17.8245 197.57 17.5416C197.303 17.2587 196.962 17.1182 196.541 17.1182H189.915C189.496 17.1182 189.153 17.2587 188.886 17.5416C188.621 17.8245 188.486 18.1536 188.486 18.5308V45.1002H188.484Z" fill="#FF004F"/>
<path d="M283.674 23.9005C282.569 21.6393 280.924 19.8495 278.734 18.5311C276.544 17.2128 273.773 16.5527 270.423 16.5527C267.49 16.5527 264.93 17.1099 262.74 18.2208C260.551 19.3334 258.836 20.9535 257.599 23.0828C256.36 25.212 255.685 27.7664 255.57 30.7426C255.57 30.9689 255.57 31.2895 255.57 31.7044C255.57 32.1192 255.57 32.4587 255.57 32.7227C255.685 37.4715 257.074 41.0528 259.74 43.4633C262.404 45.8754 265.985 47.0806 270.478 47.0806C272.801 47.0806 274.838 46.7977 276.59 46.232C278.341 45.6662 279.798 44.941 280.96 44.0547C282.121 43.1701 283.006 42.2735 283.616 41.37C284.224 40.4648 284.548 39.6933 284.587 39.0522C284.625 38.675 284.52 38.3733 284.274 38.147C284.026 37.9207 283.711 37.8075 283.331 37.8075H276.248C275.791 37.8075 275.458 37.8555 275.249 37.9481C275.039 38.0424 274.764 38.2978 274.421 38.711C274.23 38.9373 273.963 39.2116 273.62 39.5305C273.277 39.8511 272.85 40.1339 272.335 40.3774C271.821 40.6225 271.183 40.7443 270.421 40.7443C269.392 40.7443 268.526 40.4802 267.823 39.9522C267.118 39.4242 266.584 38.7093 266.224 37.8041C265.862 36.8989 265.661 35.9011 265.624 34.8074C265.624 34.7319 265.624 34.6565 265.624 34.5811C265.624 34.5057 265.624 34.4491 265.624 34.4114H283.903C284.322 34.4114 284.664 34.2794 284.932 34.0153C285.197 33.753 285.332 33.4136 285.332 32.997V31.6409C285.332 28.7436 284.78 26.1618 283.674 23.9005ZM275.278 28.8191H265.624V28.7059C265.624 27.463 265.815 26.3984 266.196 25.512C266.575 24.6274 267.128 23.9383 267.852 23.4479C268.574 22.9593 269.432 22.7125 270.423 22.7125C271.452 22.7125 272.337 22.9576 273.078 23.4479C273.821 23.9383 274.372 24.6257 274.734 25.512C275.096 26.3984 275.276 27.463 275.276 28.7059V28.8191H275.278Z" fill="#FF004F"/>
<path d="M92.5655 34.3853H84.5867C84.0289 34.3853 83.5525 34.783 83.4607 35.3282C83.388 35.7568 83.2823 36.2454 83.1264 36.7066C82.7072 37.8363 82.3001 38.5427 81.6141 39.0518C80.9282 39.561 79.9945 39.8147 78.8148 39.8147C77.2922 39.8147 76.1298 39.3433 75.3312 38.4021C74.5309 37.4609 74.0753 35.9522 73.961 33.8796C73.9229 32.7121 73.9229 31.3731 73.961 29.8662C74.0372 27.8313 74.4842 26.3243 75.3035 25.3437C76.1211 24.3648 77.2921 23.8745 78.8165 23.8745C79.92 23.8745 80.8242 24.1196 81.5293 24.6099C82.2343 25.1003 82.7124 25.8769 83.1697 27.0461C83.2563 27.2895 83.3343 27.5998 83.4036 27.9221C83.5162 28.4467 83.9804 28.8222 84.5209 28.8222H92.4823C93.1752 28.8222 93.7088 28.2187 93.6135 27.5398C93.4403 26.2952 93.1336 24.7814 92.6105 23.7922C92.0059 22.6504 91.145 21.5224 89.9827 20.4286C88.8203 19.3365 87.2977 18.4211 85.413 17.6873C83.5283 16.9518 81.2711 16.585 78.645 16.585C75.8267 16.585 73.3235 17.0941 71.134 18.1108C68.9444 19.1291 67.2208 20.6086 65.9649 22.5493C64.709 24.4917 64.0231 26.8369 63.9087 29.5868C63.8706 30.1902 63.8516 30.9531 63.8516 31.8772C63.8516 32.8012 63.8706 33.5641 63.9087 34.1659C64.0231 36.8797 64.7177 39.2061 65.9944 41.1468C67.2693 43.0875 68.9929 44.567 71.1634 45.5836C73.3339 46.6002 75.8284 47.1094 78.6468 47.1094C80.8173 47.1094 82.721 46.8556 84.358 46.3465C85.995 45.8373 87.3947 45.1876 88.557 44.3955C89.7176 43.6035 90.66 42.7377 91.3841 41.7948C92.1064 40.8536 92.6313 39.945 92.9829 39.081C93.364 38.1466 93.584 36.7117 93.7036 35.6385C93.7763 34.9682 93.2462 34.3853 92.5655 34.3853Z" fill="#FF004F"/>
<path d="M230.05 45.1002C230.05 45.4774 230.183 45.8066 230.45 46.0894C230.717 46.3723 231.058 46.5129 231.479 46.5129H238.105C238.524 46.5129 238.867 46.3723 239.134 46.0894C239.399 45.8066 239.534 45.4774 239.534 45.1002V27.9154C239.534 26.2576 239.278 24.7403 238.763 23.3637C238.249 21.9888 237.44 20.7921 236.336 19.7738C235.231 18.7555 233.804 17.9651 232.053 17.3994C230.301 16.8337 228.205 16.5508 225.77 16.5508C223.37 16.5508 221.333 16.8337 219.658 17.3994C217.981 17.9651 216.611 18.6817 215.546 19.5475C214.479 20.415 213.689 21.291 213.176 22.1756C212.662 23.062 212.405 23.8437 212.405 24.5209C212.367 24.8603 212.462 25.1518 212.691 25.3969C212.92 25.6421 213.242 25.7638 213.663 25.7638H220.06C220.668 25.7638 221.146 25.5187 221.487 25.0284C221.867 24.3135 222.392 23.7477 223.059 23.3328C223.724 22.918 224.592 22.7105 225.657 22.7105C227.18 22.7105 228.228 23.0688 228.799 23.7854C229.371 24.502 229.657 25.5375 229.657 26.8936V27.6856L222.516 28.7588C218.861 29.3246 215.929 30.3892 213.72 31.9527C211.511 33.5162 210.406 35.6369 210.406 38.313C210.406 39.9725 210.883 41.4606 211.834 42.779C212.785 44.099 214.07 45.1448 215.69 45.9163C217.308 46.6877 219.145 47.0752 221.202 47.0752C222.686 47.0752 223.991 46.8952 225.115 46.5386C226.237 46.1803 227.218 45.7003 228.056 45.0968C228.893 44.4951 229.56 43.835 230.055 43.1184V45.1002H230.05ZM229.764 33.9637C229.764 35.4723 229.508 36.7255 228.993 37.7233C228.479 38.7228 227.774 39.4565 226.88 39.928C225.984 40.3994 224.985 40.6343 223.881 40.6343C223.157 40.6343 222.482 40.5126 221.853 40.2674C221.224 40.0223 220.72 39.6742 220.339 39.2216C219.958 38.7691 219.767 38.2239 219.767 37.5827C219.767 36.7547 220.176 36.0278 220.996 35.4072C221.813 34.7849 223.118 34.3237 224.909 34.022L229.764 33.1733V33.9637Z" fill="#FF004F"/>
<path d="M251.255 9.4873H244.515C244.096 9.4873 243.753 9.61931 243.486 9.88333C243.219 10.1473 243.086 10.4868 243.086 10.9017V45.1017C243.086 45.4789 243.219 45.808 243.486 46.0909C243.753 46.3738 244.094 46.5143 244.515 46.5143H251.255C251.674 46.5143 252.017 46.3738 252.284 46.0909C252.551 45.808 252.684 45.4789 252.684 45.1017V10.8999C252.684 10.4851 252.551 10.1473 252.284 9.88161C252.016 9.61931 251.673 9.4873 251.255 9.4873Z" fill="#FF004F"/>
</svg>
